<svg xmlns="http://www.w3.org/2000/svg" viewBox="0 0 180 180">
  <defs>
    <linearGradient id="bg" x1="0" y1="0" x2="1" y2="1">
      <stop offset="0" stop-color="#6366F1"/>
      <stop offset=".55" stop-color="#3B82F6"/>
      <stop offset="1" stop-color="#1E40AF"/>
    </linearGradient>
  </defs>
  <rect width="180" height="180" rx="40" fill="url(#bg)"/>
  <g fill="#fff" opacity=".92">
    <rect x="40" y="56" width="62" height="13" rx="6.5"/>
    <rect x="40" y="84" width="84" height="13" rx="6.5"/>
    <rect x="40" y="112" width="50" height="13" rx="6.5"/>
  </g>
  <path d="M127 84c2 14.6 5.6 18.2 20.2 20.2-14.6 2-18.2 5.6-20.2 20.2-2-14.6-5.6-18.2-20.2-20.2 14.6-2 18.2-5.6 20.2-20.2z" fill="#fff"/>
  <path d="M141 45c1.1 8.1 3.1 10.1 11.2 11.2-8.1 1.1-10.1 3.1-11.2 11.2-1.1-8.1-3.1-10.1-11.2-11.2 8.1-1.1 10.1-3.1 11.2-11.2z" fill="#C7D2FE"/>
</svg>
