<svg xmlns="http://www.w3.org/2000/svg" viewBox="0 0 64 64">
  <defs>
    <linearGradient id="g" x1="0" y1="0" x2="1" y2="1">
      <stop offset="0" stop-color="#3B82F6"/>
      <stop offset="1" stop-color="#1E40AF"/>
    </linearGradient>
  </defs>
  <rect width="64" height="64" rx="14" fill="url(#g)"/>
  <!-- chat bubble -->
  <path d="M16 18h32a6 6 0 0 1 6 6v14a6 6 0 0 1-6 6H30l-10 8v-8h-4a6 6 0 0 1-6-6V24a6 6 0 0 1 6-6z" fill="#fff"/>
  <!-- AI spark -->
  <path d="M32 24l2.2 5.8L40 32l-5.8 2.2L32 40l-2.2-5.8L24 32l5.8-2.2z" fill="#3B82F6"/>
  <circle cx="22.5" cy="32" r="2" fill="#93C5FD"/>
  <circle cx="41.5" cy="32" r="2" fill="#93C5FD"/>
</svg>
