<svg xmlns="http://www.w3.org/2000/svg" viewBox="0 0 64 64">
  <defs>
    <linearGradient id="bg" x1="0" y1="0" x2="1" y2="1">
      <stop offset="0" stop-color="#6366F1"/>
      <stop offset=".55" stop-color="#3B82F6"/>
      <stop offset="1" stop-color="#1E40AF"/>
    </linearGradient>
  </defs>
  <!-- tile -->
  <rect width="64" height="64" rx="15" fill="url(#bg)"/>
  <!-- generated content lines -->
  <g fill="#fff" opacity=".92">
    <rect x="14" y="20" width="22" height="4.5" rx="2.25"/>
    <rect x="14" y="30" width="30" height="4.5" rx="2.25"/>
    <rect x="14" y="40" width="18" height="4.5" rx="2.25"/>
  </g>
  <!-- AI spark (hero) -->
  <path d="M45 30c.7 5.2 2 6.5 7.2 7.2-5.2.7-6.5 2-7.2 7.2-.7-5.2-2-6.5-7.2-7.2 5.2-.7 6.5-2 7.2-7.2z" fill="#fff"/>
  <!-- AI spark (accent) -->
  <path d="M50 16c.4 2.9 1.1 3.6 4 4-2.9.4-3.6 1.1-4 4-.4-2.9-1.1-3.6-4-4 2.9-.4 3.6-1.1 4-4z" fill="#C7D2FE"/>
</svg>
