<svg xmlns="http://www.w3.org/2000/svg" viewBox="0 0 512 512">
  <defs>
    <linearGradient id="bg" x1="0" y1="0" x2="1" y2="1">
      <stop offset="0" stop-color="#6366F1"/>
      <stop offset=".55" stop-color="#3B82F6"/>
      <stop offset="1" stop-color="#1E40AF"/>
    </linearGradient>
  </defs>
  <rect width="512" height="512" fill="url(#bg)"/>
  <g fill="#fff" opacity=".92">
    <rect x="150" y="186" width="150" height="30" rx="15"/>
    <rect x="150" y="241" width="200" height="30" rx="15"/>
    <rect x="150" y="296" width="118" height="30" rx="15"/>
  </g>
  <path d="M338 236c4.6 33.4 12.8 41.6 46.2 46.2-33.4 4.6-41.6 12.8-46.2 46.2-4.6-33.4-12.8-41.6-46.2-46.2 33.4-4.6 41.6-12.8 46.2-46.2z" fill="#fff"/>
  <path d="M362 168c2.4 17.4 6.6 21.6 24 24-17.4 2.4-21.6 6.6-24 24-2.4-17.4-6.6-21.6-24-24 17.4-2.4 21.6-6.6 24-24z" fill="#C7D2FE"/>
</svg>
